<svg id="visual" viewBox="0 0 900 150" width="900" height="150" xmlns="http://www.w3.org/2000/svg" xmlns:xlink="http://www.w3.org/1999/xlink" version="1.1"><rect x="0" y="0" width="900" height="150" fill="#f5f5f6"></rect><path d="M0 47L10 49.5C20 52 40 57 60 60.8C80 64.7 100 67.3 120 69.8C140 72.3 160 74.7 180 71C200 67.3 220 57.7 240 53.5C260 49.3 280 50.7 300 53.3C320 56 340 60 360 62.7C380 65.3 400 66.7 420 64.3C440 62 460 56 480 55.7C500 55.3 520 60.7 540 62.7C560 64.7 580 63.3 600 64.2C620 65 640 68 660 65.5C680 63 700 55 720 51.5C740 48 760 49 780 53.2C800 57.3 820 64.7 840 67.2C860 69.7 880 67.3 890 66.2L900 65L900 0L890 0C880 0 860 0 840 0C820 0 800 0 780 0C760 0 740 0 720 0C700 0 680 0 660 0C640 0 620 0 600 0C580 0 560 0 540 0C520 0 500 0 480 0C460 0 440 0 420 0C400 0 380 0 360 0C340 0 320 0 300 0C280 0 260 0 240 0C220 0 200 0 180 0C160 0 140 0 120 0C100 0 80 0 60 0C40 0 20 0 10 0L0 0Z" fill="#ffffff" stroke-linecap="round" stroke-linejoin="miter"></path></svg>