<svg id="visual" viewBox="0 0 900 150" width="900" height="150" xmlns="http://www.w3.org/2000/svg" xmlns:xlink="http://www.w3.org/1999/xlink" version="1.1"><rect x="0" y="0" width="900" height="150" fill="#fff"></rect><path d="M0 91L12.5 92.5C25 94 50 97 75 99C100 101 125 102 150 95.5C175 89 200 75 225 67.2C250 59.3 275 57.7 300 59.7C325 61.7 350 67.3 375 76.2C400 85 425 97 450 100.3C475 103.7 500 98.3 525 89.8C550 81.3 575 69.7 600 71.2C625 72.7 650 87.3 675 93.3C700 99.3 725 96.7 750 97.7C775 98.7 800 103.3 825 96.7C850 90 875 72 887.5 63L900 54L900 151L887.5 151C875 151 850 151 825 151C800 151 775 151 750 151C725 151 700 151 675 151C650 151 625 151 600 151C575 151 550 151 525 151C500 151 475 151 450 151C425 151 400 151 375 151C350 151 325 151 300 151C275 151 250 151 225 151C200 151 175 151 150 151C125 151 100 151 75 151C50 151 25 151 12.5 151L0 151Z" fill="#F5F5F6" stroke-linecap="round" stroke-linejoin="miter"></path></svg>