<svg id="visual" viewBox="0 0 900 150" width="900" height="150" xmlns="http://www.w3.org/2000/svg" xmlns:xlink="http://www.w3.org/1999/xlink" version="1.1"><rect x="0" y="0" width="900" height="150" fill="#f5f5f6"></rect><path d="M0 75L10 73.8C20 72.7 40 70.3 60 72.5C80 74.7 100 81.3 120 83.8C140 86.3 160 84.7 180 80.7C200 76.7 220 70.3 240 69.7C260 69 280 74 300 77C320 80 340 81 360 84C380 87 400 92 420 89.2C440 86.3 460 75.7 480 70.2C500 64.7 520 64.3 540 69.8C560 75.3 580 86.7 600 91.5C620 96.3 640 94.7 660 93.5C680 92.3 700 91.7 720 88.3C740 85 760 79 780 78.2C800 77.3 820 81.7 840 82.2C860 82.7 880 79.3 890 77.7L900 76L900 151L890 151C880 151 860 151 840 151C820 151 800 151 780 151C760 151 740 151 720 151C700 151 680 151 660 151C640 151 620 151 600 151C580 151 560 151 540 151C520 151 500 151 480 151C460 151 440 151 420 151C400 151 380 151 360 151C340 151 320 151 300 151C280 151 260 151 240 151C220 151 200 151 180 151C160 151 140 151 120 151C100 151 80 151 60 151C40 151 20 151 10 151L0 151Z" fill="#ffffff" stroke-linecap="round" stroke-linejoin="miter"></path></svg>