<svg id="visual" viewBox="0 0 900 150" width="900" height="150" xmlns="http://www.w3.org/2000/svg" xmlns:xlink="http://www.w3.org/1999/xlink" version="1.1"><rect x="0" y="0" width="900" height="150" fill="#fff"></rect><path d="M0 98L10 98.2C20 98.3 40 98.7 60 96.3C80 94 100 89 120 87.3C140 85.7 160 87.3 180 91.7C200 96 220 103 240 104.5C260 106 280 102 300 97.2C320 92.3 340 86.7 360 86.3C380 86 400 91 420 95C440 99 460 102 480 103.3C500 104.7 520 104.3 540 104.3C560 104.3 580 104.7 600 102.3C620 100 640 95 660 91.5C680 88 700 86 720 87.8C740 89.7 760 95.3 780 96C800 96.7 820 92.3 840 89.2C860 86 880 84 890 83L900 82L900 151L890 151C880 151 860 151 840 151C820 151 800 151 780 151C760 151 740 151 720 151C700 151 680 151 660 151C640 151 620 151 600 151C580 151 560 151 540 151C520 151 500 151 480 151C460 151 440 151 420 151C400 151 380 151 360 151C340 151 320 151 300 151C280 151 260 151 240 151C220 151 200 151 180 151C160 151 140 151 120 151C100 151 80 151 60 151C40 151 20 151 10 151L0 151Z" fill="#f5f5f6" stroke-linecap="round" stroke-linejoin="miter"></path></svg>